<svg width="3246" height="386" viewBox="0 0 3246 386" fill="none" xmlns="http://www.w3.org/2000/svg">
<path d="M8 182.5C8 182.5 426.976 -106.625 824.394 182.5C1221.81 471.625 1643 182.5 1643 182.5" stroke="white" stroke-width="25" stroke-dasharray="75 75"/>
<path d="M8 138C8 138 418.132 -159 824.394 138C1230.66 435 1643 138 1643 138" stroke="#18A8A5" stroke-width="12" stroke-linecap="round"/>
<path d="M1603 207C1603 207 2021.98 -83.25 2419.39 207C2816.81 497.25 3238 207 3238 207" stroke="white" stroke-width="25" stroke-dasharray="75 75"/>
<path d="M1603 162C1603 162 2013.13 -135 2419.39 162C2825.66 459 3238 162 3238 162" stroke="#18A8A5" stroke-width="12" stroke-linecap="round"/>
<path d="M8 224C8 224 418.132 -72.9999 824.394 224C1230.66 521 1643 224 1643 224" stroke="#18A8A5" stroke-width="12" stroke-linecap="round"/>
<path d="M1603 248C1603 248 2013.13 -48.9999 2419.39 248C2825.66 545 3238 248 3238 248" stroke="#18A8A5" stroke-width="12" stroke-linecap="round"/>
</svg>
